<?xml version="1.0" encoding="utf-8"?>
<!-- Generator: Adobe Illustrator 16.0.0, SVG Export Plug-In . SVG Version: 6.00 Build 0)  -->
<!DOCTYPE svg PUBLIC "-//W3C//DTD SVG 1.1//EN" "http://www.w3.org/Graphics/SVG/1.1/DTD/svg11.dtd">
<svg version="1.1" id="Layer_1" xmlns="http://www.w3.org/2000/svg" xmlns:xlink="http://www.w3.org/1999/xlink" x="0px" y="0px"
	 width="59px" height="20px" viewBox="0 0 59 20" enable-background="new 0 0 59 20" xml:space="preserve">
<g>
	<rect x="11.879" y="-2.415" fill="none" width="35.039" height="24.83"/>
	<g>
		<rect x="25.767" y="3.493" fill="#EAD7CE" width="7.243" height="13.013"/>
		<path fill="#FFFFFF" d="M26.228,10c-0.003-2.541,1.164-4.94,3.161-6.507c-3.593-2.825-8.797-2.202-11.622,1.393
			c-2.825,3.594-2.201,8.797,1.393,11.621c3.002,2.36,7.228,2.36,10.229,0C27.392,14.939,26.225,12.54,26.228,10z"/>
		<path fill="#FFFFFF" d="M42.78,10c0,4.569-3.706,8.277-8.277,8.277c-1.854,0-3.656-0.625-5.115-1.771
			c3.594-2.825,4.216-8.03,1.39-11.624c-0.406-0.516-0.872-0.983-1.39-1.39c3.594-2.825,8.798-2.202,11.623,1.393
			C42.157,6.342,42.78,8.144,42.78,10z"/>
	</g>
</g>
</svg>
